# xmcd
#
# Track frame offsets:
#	150
#	19141
#	37581
#	52062
#	68819
#	83772
#	98774
#	115480
#	132349
#	150033
#	169059
#	189080
#	206366
#	222616
#	235339
#
# Disc length: 3526 seconds
#
# Revision: 1
# Processed by: cddbd v1.5.2PL0 Copyright (c) Steve Scherf et al.
# Submitted via: audiograbber 1.83.01
#
DISCID=bf0dc40f
DTITLE=Various Artist - sc8837
DYEAR=1900
DGENRE=country
TTITLE0=martina mcbride - this one's for the girls
TTITLE1=gary allan - tough little boys
TTITLE2=phil vassar - ultimate love
TTITLE3=jo dee messina - i wish
TTITLE4=diamond rio - wrinkles
TTITLE5=ryan laird - i'm your man
TTITLE6=mercyme - i can only imagine
TTITLE7=george strait - I found Jesus on the jailhouse floor
TTITLE8=unknown - can you hear me
TTITLE9=alan jackson ft. jimmy buffett - it's 5:00 somewhere
TTITLE10=rodney atkins - honesty
TTITLE11=leann rimes - we can
TTITLE12=darryl worley - tennessee river run
TTITLE13=stephanie williams - hand me down heartache
TTITLE14=blake shelton - playboys of the south western world
EXTD=
EXTT0=
EXTT1=
EXTT2=
EXTT3=
EXTT4=
EXTT5=
EXTT6=
EXTT7=
EXTT8=
EXTT9=
EXTT10=
EXTT11=
EXTT12=
EXTT13=
EXTT14=
PLAYORDER=
